<?xml version="1.0" encoding="utf-8"?>
<!-- Generator: Adobe Illustrator 18.1.1, SVG Export Plug-In . SVG Version: 6.00 Build 0)  -->
<svg version="1.1" id="Layer_1" xmlns="http://www.w3.org/2000/svg" xmlns:xlink="http://www.w3.org/1999/xlink" x="0px" y="0px"
	 viewBox="0 0 191.4 13.4" enable-background="new 0 0 191.4 13.4" xml:space="preserve">
<g>
	<path opacity="0.7" fill="#231F20" d="M94.6,10L74.2,1.4c0.1,0.2,0.1,0.4,0.1,0.6c0,0.6-0.2,1-0.6,1.4l20.2,8.5c0-0.1,0-0.2,0-0.3
		C93.8,10.9,94.2,10.3,94.6,10z"/>
	<path opacity="0.7" fill="#231F20" d="M23.4,1.9c0-0.2,0-0.3,0.1-0.5L3,10c0.5,0.3,0.7,0.9,0.7,1.5c0,0.1,0,0.3,0,0.4l20.4-8.5
		C23.7,3,23.4,2.5,23.4,1.9z"/>
	<path opacity="0.7" fill="#231F20" d="M47.5,9.9L27.1,1.4c0,0.2,0.1,0.3,0.1,0.5c0,0.6-0.3,1.1-0.6,1.4l20.6,8.5
		C47,11.6,47,11.4,47,11.2C47,10.7,47.2,10.2,47.5,9.9z"/>
	<path opacity="0.7" fill="#231F20" d="M70.5,1.9c0-0.2,0-0.3,0.1-0.5L50.2,9.9c0.3,0.3,0.5,0.8,0.5,1.3c0,0.2,0,0.5-0.1,0.7
		l20.6-8.5C70.8,3,70.5,2.5,70.5,1.9z"/>
	<path opacity="0.85" fill="#231F20" d="M3,10C2.7,9.8,2.3,9.6,1.9,9.6c-1,0-1.9,0.8-1.9,1.9s0.8,1.9,1.9,1.9c0.9,0,1.7-0.6,1.8-1.5
		c0-0.1,0-0.2,0-0.4C3.8,10.9,3.5,10.4,3,10z"/>
	<path opacity="0.85" fill="#231F20" d="M27.1,1.4c-0.2-0.8-0.9-1.3-1.8-1.3c-0.9,0-1.6,0.6-1.8,1.4c0,0.2-0.1,0.3-0.1,0.5
		c0,0.6,0.3,1.1,0.7,1.4c0.3,0.3,0.7,0.5,1.2,0.5c0.5,0,0.9-0.2,1.2-0.5c0.4-0.3,0.6-0.8,0.6-1.4C27.2,1.8,27.1,1.6,27.1,1.4z"/>
	<path opacity="0.85" fill="#231F20" d="M50.2,9.9c-0.3-0.3-0.8-0.6-1.3-0.6c-0.5,0-1,0.2-1.3,0.5c-0.3,0.3-0.5,0.8-0.5,1.3
		c0,0.2,0,0.5,0.1,0.7c0.3,0.7,0.9,1.2,1.7,1.2c0.8,0,1.5-0.5,1.7-1.2c0.1-0.2,0.1-0.4,0.1-0.7C50.8,10.7,50.5,10.2,50.2,9.9z"/>
	<path opacity="0.85" fill="#231F20" d="M74.2,1.4c-0.2-0.8-0.9-1.3-1.8-1.3c-0.9,0-1.6,0.6-1.8,1.4c0,0.2-0.1,0.3-0.1,0.5
		c0,0.6,0.3,1.1,0.7,1.4c0.3,0.3,0.7,0.4,1.2,0.4c0.5,0,0.9-0.2,1.2-0.5C74,3,74.2,2.5,74.2,1.9C74.2,1.7,74.2,1.6,74.2,1.4z"/>
	<path opacity="0.85" fill="#231F20" d="M95.7,9.6c-0.4,0-0.8,0.1-1.1,0.3c-0.5,0.3-0.8,0.9-0.8,1.5c0,0.1,0,0.2,0,0.3
		c0.1,0.9,0.9,1.6,1.8,1.6c1,0,1.9-0.8,1.9-1.9S96.7,9.6,95.7,9.6z"/>
</g>
<g>
	<path opacity="0.7" fill="#231F20" d="M188.5,9.9L168,1.3c0.1,0.2,0.1,0.4,0.1,0.6c0,0.6-0.2,1-0.6,1.4l20.2,8.5c0-0.1,0-0.2,0-0.3
		C187.6,10.8,188,10.3,188.5,9.9z"/>
	<path opacity="0.7" fill="#231F20" d="M117.2,1.9c0-0.2,0-0.3,0.1-0.5L96.8,10c0.5,0.3,0.7,0.9,0.7,1.5c0,0.1,0,0.3,0,0.4l20.4-8.5
		C117.5,2.9,117.2,2.4,117.2,1.9z"/>
	<path opacity="0.7" fill="#231F20" d="M141.4,9.8l-20.5-8.5c0,0.2,0.1,0.3,0.1,0.5c0,0.6-0.3,1.1-0.6,1.4l20.6,8.5
		c-0.1-0.2-0.1-0.4-0.1-0.7C140.8,10.6,141,10.1,141.4,9.8z"/>
	<path opacity="0.7" fill="#231F20" d="M164.3,1.9c0-0.2,0-0.3,0.1-0.5L144,9.8c0.3,0.3,0.5,0.8,0.5,1.3c0,0.2,0,0.5-0.1,0.7
		L165,3.3C164.6,3,164.3,2.5,164.3,1.9z"/>
	<path opacity="0.85" fill="#231F20" d="M120.9,1.3C120.7,0.6,120,0,119.1,0c-0.9,0-1.6,0.6-1.8,1.4c0,0.2-0.1,0.3-0.1,0.5
		c0,0.6,0.3,1.1,0.7,1.4c0.3,0.3,0.7,0.5,1.2,0.5c0.5,0,0.9-0.2,1.2-0.5c0.4-0.3,0.6-0.8,0.6-1.4C121,1.7,120.9,1.5,120.9,1.3z"/>
	<path opacity="0.85" fill="#231F20" d="M144,9.8c-0.3-0.3-0.8-0.6-1.3-0.6c-0.5,0-1,0.2-1.3,0.5c-0.3,0.3-0.5,0.8-0.5,1.3
		c0,0.2,0,0.5,0.1,0.7c0.3,0.7,0.9,1.2,1.7,1.2c0.8,0,1.5-0.5,1.7-1.2c0.1-0.2,0.1-0.4,0.1-0.7C144.6,10.6,144.4,10.1,144,9.8z"/>
	<path opacity="0.85" fill="#231F20" d="M168,1.3C167.7,0.6,167,0,166.2,0c-0.9,0-1.6,0.6-1.8,1.4c0,0.2-0.1,0.3-0.1,0.5
		c0,0.6,0.3,1.1,0.7,1.4c0.3,0.3,0.7,0.4,1.2,0.4c0.5,0,0.9-0.2,1.2-0.5c0.4-0.3,0.6-0.8,0.6-1.4C168.1,1.7,168,1.5,168,1.3z"/>
	<path opacity="0.85" fill="#231F20" d="M189.5,9.6c-0.4,0-0.8,0.1-1.1,0.3c-0.5,0.3-0.8,0.9-0.8,1.5c0,0.1,0,0.2,0,0.3
		c0.1,0.9,0.9,1.6,1.8,1.6c1,0,1.9-0.8,1.9-1.9S190.6,9.6,189.5,9.6z"/>
</g>
<g>
	<path opacity="0.7" fill="#231F20" d="M94.6,10L74.2,1.4c0.1,0.2,0.1,0.4,0.1,0.6c0,0.6-0.2,1-0.6,1.4l20.2,8.5c0-0.1,0-0.2,0-0.3
		C93.8,10.9,94.2,10.3,94.6,10z"/>
	<path opacity="0.7" fill="#231F20" d="M23.4,1.9c0-0.2,0-0.3,0.1-0.5L3,10c0.5,0.3,0.7,0.9,0.7,1.5c0,0.1,0,0.3,0,0.4l20.4-8.5
		C23.7,3,23.4,2.5,23.4,1.9z"/>
	<path opacity="0.7" fill="#231F20" d="M47.5,9.9L27.1,1.4c0,0.2,0.1,0.3,0.1,0.5c0,0.6-0.3,1.1-0.6,1.4l20.6,8.5
		C47,11.6,47,11.4,47,11.2C47,10.7,47.2,10.2,47.5,9.9z"/>
	<path opacity="0.7" fill="#231F20" d="M70.5,1.9c0-0.2,0-0.3,0.1-0.5L50.2,9.9c0.3,0.3,0.5,0.8,0.5,1.3c0,0.2,0,0.5-0.1,0.7
		l20.6-8.5C70.8,3,70.5,2.5,70.5,1.9z"/>
	<path opacity="0.85" fill="#231F20" d="M3,10C2.7,9.8,2.3,9.6,1.9,9.6c-1,0-1.9,0.8-1.9,1.9s0.8,1.9,1.9,1.9c0.9,0,1.7-0.6,1.8-1.5
		c0-0.1,0-0.2,0-0.4C3.8,10.9,3.5,10.4,3,10z"/>
	<path opacity="0.85" fill="#231F20" d="M27.1,1.4c-0.2-0.8-0.9-1.3-1.8-1.3c-0.9,0-1.6,0.6-1.8,1.4c0,0.2-0.1,0.3-0.1,0.5
		c0,0.6,0.3,1.1,0.7,1.4c0.3,0.3,0.7,0.5,1.2,0.5c0.5,0,0.9-0.2,1.2-0.5c0.4-0.3,0.6-0.8,0.6-1.4C27.2,1.8,27.1,1.6,27.1,1.4z"/>
	<path opacity="0.85" fill="#231F20" d="M50.2,9.9c-0.3-0.3-0.8-0.6-1.3-0.6c-0.5,0-1,0.2-1.3,0.5c-0.3,0.3-0.5,0.8-0.5,1.3
		c0,0.2,0,0.5,0.1,0.7c0.3,0.7,0.9,1.2,1.7,1.2c0.8,0,1.5-0.5,1.7-1.2c0.1-0.2,0.1-0.4,0.1-0.7C50.8,10.7,50.5,10.2,50.2,9.9z"/>
	<path opacity="0.85" fill="#231F20" d="M74.2,1.4c-0.2-0.8-0.9-1.3-1.8-1.3c-0.9,0-1.6,0.6-1.8,1.4c0,0.2-0.1,0.3-0.1,0.5
		c0,0.6,0.3,1.1,0.7,1.4c0.3,0.3,0.7,0.4,1.2,0.4c0.5,0,0.9-0.2,1.2-0.5C74,3,74.2,2.5,74.2,1.9C74.2,1.7,74.2,1.6,74.2,1.4z"/>
	<path opacity="0.85" fill="#231F20" d="M95.7,9.6c-0.4,0-0.8,0.1-1.1,0.3c-0.5,0.3-0.8,0.9-0.8,1.5c0,0.1,0,0.2,0,0.3
		c0.1,0.9,0.9,1.6,1.8,1.6c1,0,1.9-0.8,1.9-1.9S96.7,9.6,95.7,9.6z"/>
</g>
<g>
	<path opacity="0.7" fill="#231F20" d="M188.5,9.9L168,1.3c0.1,0.2,0.1,0.4,0.1,0.6c0,0.6-0.2,1-0.6,1.4l20.2,8.5c0-0.1,0-0.2,0-0.3
		C187.6,10.8,188,10.3,188.5,9.9z"/>
	<path opacity="0.7" fill="#231F20" d="M117.2,1.9c0-0.2,0-0.3,0.1-0.5L96.8,10c0.5,0.3,0.7,0.9,0.7,1.5c0,0.1,0,0.3,0,0.4l20.4-8.5
		C117.5,2.9,117.2,2.4,117.2,1.9z"/>
	<path opacity="0.7" fill="#231F20" d="M141.4,9.8l-20.5-8.5c0,0.2,0.1,0.3,0.1,0.5c0,0.6-0.3,1.1-0.6,1.4l20.6,8.5
		c-0.1-0.2-0.1-0.4-0.1-0.7C140.8,10.6,141,10.1,141.4,9.8z"/>
	<path opacity="0.7" fill="#231F20" d="M164.3,1.9c0-0.2,0-0.3,0.1-0.5L144,9.8c0.3,0.3,0.5,0.8,0.5,1.3c0,0.2,0,0.5-0.1,0.7
		L165,3.3C164.6,3,164.3,2.5,164.3,1.9z"/>
	<path opacity="0.85" fill="#231F20" d="M120.9,1.3C120.7,0.6,120,0,119.1,0c-0.9,0-1.6,0.6-1.8,1.4c0,0.2-0.1,0.3-0.1,0.5
		c0,0.6,0.3,1.1,0.7,1.4c0.3,0.3,0.7,0.5,1.2,0.5c0.5,0,0.9-0.2,1.2-0.5c0.4-0.3,0.6-0.8,0.6-1.4C121,1.7,120.9,1.5,120.9,1.3z"/>
	<path opacity="0.85" fill="#231F20" d="M144,9.8c-0.3-0.3-0.8-0.6-1.3-0.6c-0.5,0-1,0.2-1.3,0.5c-0.3,0.3-0.5,0.8-0.5,1.3
		c0,0.2,0,0.5,0.1,0.7c0.3,0.7,0.9,1.2,1.7,1.2c0.8,0,1.5-0.5,1.7-1.2c0.1-0.2,0.1-0.4,0.1-0.7C144.6,10.6,144.4,10.1,144,9.8z"/>
	<path opacity="0.85" fill="#231F20" d="M168,1.3C167.7,0.6,167,0,166.2,0c-0.9,0-1.6,0.6-1.8,1.4c0,0.2-0.1,0.3-0.1,0.5
		c0,0.6,0.3,1.1,0.7,1.4c0.3,0.3,0.7,0.4,1.2,0.4c0.5,0,0.9-0.2,1.2-0.5c0.4-0.3,0.6-0.8,0.6-1.4C168.1,1.7,168,1.5,168,1.3z"/>
	<path opacity="0.85" fill="#231F20" d="M189.5,9.6c-0.4,0-0.8,0.1-1.1,0.3c-0.5,0.3-0.8,0.9-0.8,1.5c0,0.1,0,0.2,0,0.3
		c0.1,0.9,0.9,1.6,1.8,1.6c1,0,1.9-0.8,1.9-1.9S190.6,9.6,189.5,9.6z"/>
</g>
</svg>
